<svg width="763" height="178" viewBox="0 0 763 178" fill="none" xmlns="http://www.w3.org/2000/svg">
<g clip-path="url(#clip0)">
<path d="M199.078 0V178H236.842V126.275H251.396V178H325.796V140.663H289.161V126.275H325.796V0H199.078ZM288.031 88.938H236.717V37.3366H288.031V88.938Z" fill="#A4A6A7"/>
<path d="M433.568 140.663H382.254V0H344.615V178H471.207V0H433.568V140.663Z" fill="#A4A6A7"/>
<path d="M490.026 0V107.668H578.98V140.663H490.026V178H616.744V70.3317H527.791V37.3366H616.744V0H490.026Z" fill="#A4A6A7"/>
<path d="M635.563 0V37.3366H680.103V178H717.742V37.3366H762.281V0H635.563Z" fill="#A4A6A7"/>
<path d="M180.258 0H0.21875V178H180.258V0Z" fill="#CD412B"/>
<path d="M59.1852 80.2545L20.9189 74.0524V111.761L59.1852 105.559V80.2545Z" fill="#1E2020"/>
<path d="M78.3793 80.2543H65.582V105.435H78.3793V80.2543Z" fill="#1E2020"/>
<path d="M106.988 58.2995L113.261 20.4667H75.1201L81.3933 58.2995H106.988Z" fill="#1E2020"/>
<path d="M106.862 64.6255H81.3926V77.2777H106.862V64.6255Z" fill="#1E2020"/>
<path d="M94.1866 83.9636L85.1377 92.9099L94.1866 101.856L103.236 92.9099L94.1866 83.9636Z" fill="#1E2020"/>
<path d="M110.002 126.275L132.46 157.533L159.56 130.74L127.943 108.537L110.002 126.275Z" fill="#1E2020"/>
<path d="M114.453 95.1626L96.4434 112.968L105.492 121.914L123.501 104.109L114.453 95.1626Z" fill="#1E2020"/>
</g>
<defs>
<clipPath id="clip0">
<rect width="762.062" height="178" fill="white" transform="translate(0.21875)"/>
</clipPath>
</defs>
</svg>
